<?xml version="1.0" encoding="UTF-8"?>
<svg width="53.597488mm" height="21mm" enable-background="new" version="1.1" viewBox="0 0 53.597488 21" xmlns="http://www.w3.org/2000/svg">
	<g transform="translate(-24.02974,-38.853065)" enable-background="new" fill="#fff" stroke-width=".15887359" style="font-feature-settings:normal;font-variant-caps:normal;font-variant-ligatures:normal;font-variant-numeric:normal" aria-label="Lutang">
		<path d="m45.20724 51.70808h3.973773v-0.746343h-3.136658v-6.253146h-0.837115z"/>
		<path d="m51.127544 46.846764h-0.806857v3.187087c0 1.079172 0.716086 1.775086 1.754915 1.775086 0.534543 0 1.079172-0.191628 1.533029-0.524457l0.181543 0.4236h0.564801v-4.861316h-0.806858v3.812402c-0.353 0.2824-0.796772 0.443771-1.230458 0.443771-0.756429 0-1.190115-0.443771-1.190115-1.230458z"/>
		<path d="m57.62274 51.758509c0.332828 0 0.665657-0.08069 0.897629-0.181543l-0.181543-0.584972c-0.151286 0.0706-0.373172 0.110943-0.544629 0.110943-0.504286 0-0.837115-0.322743-0.837115-0.806857v-2.773573h1.331315v-0.675743h-1.331315v-1.422087h-0.806857v1.422087h-0.655572v0.675743h0.655572v2.884516c0 0.806857 0.584971 1.351486 1.472515 1.351486z"/>
		<path d="m60.951009 51.808937c0.615229 0 1.139686-0.201714 1.533029-0.554714l0.191629 0.453857h0.5648v-3.15683c0-1.159857-0.685829-1.805344-1.956629-1.805344-0.635401 0-1.32123 0.171458-1.845687 0.463944l0.201714 0.595057c0.504286-0.221886 1.008572-0.332829 1.482601-0.332829 0.867372 0 1.311144 0.363086 1.311144 1.079172v0.322743c-2.178516 0.02017-3.126573 0.474029-3.126573 1.512858 0 0.867372 0.645486 1.422086 1.643972 1.422086zm-0.837115-1.512857c0-0.605144 0.685829-0.857287 2.319716-0.867372v1.190115c-0.302572 0.302571-0.746344 0.484114-1.25063 0.484114-0.645486 0-1.069086-0.322743-1.069086-0.806857z"/>
		<path d="m64.834002 51.70808h0.806857v-3.802316c0.373172-0.292486 0.816944-0.453857 1.290972-0.453857 0.786687 0 1.220372 0.443771 1.220372 1.230458v3.025715h0.806858v-3.187087c0-1.079172-0.716086-1.775087-1.805344-1.775087-0.554714 0-1.109429 0.191629-1.573372 0.534544l-0.181543-0.433686h-0.5648z"/>
		<path d="m72.408372 51.808937c0.5648 0 1.048914-0.191628 1.412-0.534543v0.413515c0 1.079172-0.484114 1.613715-1.452343 1.613715-0.433686 0-0.958144-0.110943-1.412001-0.302572l-0.171457 0.615229c0.504286 0.252143 1.018657 0.383258 1.522943 0.383258 1.401915 0 2.319716-0.96823 2.319716-2.430659v-4.720116h-0.5648l-0.151286 0.413514c-0.353-0.332829-0.837115-0.514372-1.401915-0.514372-1.351487 0-2.269287 1.018658-2.269287 2.561773 0 1.502772 0.867372 2.501258 2.16843 2.501258zm-1.361572-2.581944c0-1.069086 0.5648-1.775086 1.502772-1.775086 0.544629 0 0.978314 0.221886 1.2708 0.605143v2.491173c-0.272314 0.353-0.685829 0.554714-1.180029 0.554714-0.968229 0-1.593543-0.756429-1.593543-1.875944z"/>
	</g>
	<g transform="matrix(1.3995127,0,0,1.3995127,-36.383854,-64.413995)" enable-background="new">
		<path d="m28.141119 48.169621h10.718017v10.718016h-10.718017z" fill="#790606" style="paint-order:markers stroke fill"/>
	</g>
	<text x="3.7954431" y="13.826352" fill="#f9f9f9" font-family="'DejaVu Sans'" font-size="14.8167px" letter-spacing="0px" stroke-width=".264583" word-spacing="0px" style="line-height:0.1" xml:space="preserve"><tspan x="3.7954431" y="13.826352" fill="#f9f9f9" stroke-width=".264583">ᜎᜓ</tspan></text>
</svg>
